<svg width="242" height="25" viewBox="0 0 242 25" fill="none" xmlns="http://www.w3.org/2000/svg">
<g clip-path="url(#clip0_0_961)">
<path d="M185.922 0H169.284C169.011 0 168.79 0.219727 168.79 0.490775V2.27419C168.79 2.54524 169.011 2.76496 169.284 2.76496H185.922C186.194 2.76496 186.415 2.54524 186.415 2.27419V0.490775C186.415 0.219727 186.194 0 185.922 0Z" fill="white"/>
<path d="M166.01 18.7166C166.01 22.1843 168.836 24.9948 172.322 24.9948H185.922C186.194 24.9948 186.415 24.7749 186.415 24.504V22.7179C186.415 22.4471 186.194 22.2272 185.922 22.2272H172.325C170.381 22.2272 168.787 20.6449 168.787 18.7086V13.8786H185.919C186.191 13.8786 186.412 13.6587 186.412 13.3879V11.6018C186.412 11.3309 186.191 11.111 185.919 11.111H168.787V3.25591C168.787 2.98505 168.566 2.76514 168.294 2.76514H166.498C166.226 2.76514 166.005 2.98505 166.005 3.25591V18.7193L166.01 18.7166Z" fill="white"/>
<path d="M193.371 24.9946H191.576C191.303 24.9946 191.082 24.7747 191.082 24.5039V6.28084C191.082 2.81324 193.908 0 197.397 0H210.994C211.266 0 211.487 0.21991 211.487 0.490775V2.27687C211.487 2.54774 211.266 2.76765 210.994 2.76765H197.397C195.445 2.76765 193.862 4.34188 193.862 6.28352V24.5092C193.862 24.7801 193.641 25 193.369 25L193.371 24.9946Z" fill="white"/>
<path d="M156.404 0H144.201C143.928 0 143.707 0.21991 143.707 0.490775V2.27687C143.707 2.54774 143.928 2.76765 144.201 2.76765H156.406C158.359 2.76765 159.941 4.34188 159.941 6.28352V7.60566C159.941 9.54731 158.359 11.1189 156.409 11.1189H143.71V3.25574C143.71 2.98487 143.489 2.76496 143.217 2.76496H141.421C141.149 2.76496 140.928 2.98487 140.928 3.25574V24.5065C140.928 24.7774 141.149 24.9973 141.421 24.9973H143.217C143.489 24.9973 143.71 24.7774 143.71 24.5065V13.8838H156.409C159.895 13.8838 162.721 11.0733 162.721 7.60566V6.2862C162.721 2.81324 159.893 0 156.404 0Z" fill="white"/>
<path d="M242 0.495898V2.27663C242 2.5475 241.779 2.76741 241.507 2.76741H229.544V24.5063C229.544 24.7772 229.32 24.9998 229.047 24.9998H227.244C226.979 24.9998 226.764 24.7852 226.764 24.5224V2.77009H214.787C214.526 2.77009 214.294 2.55286 214.294 2.27931V0.495898C214.294 0.219669 214.526 0.00244141 214.787 0.00244141H225.162C225.294 0.00244141 225.418 0.0533961 225.513 0.14726L227.796 2.41877C227.991 2.61186 228.303 2.61186 228.497 2.41877L230.781 0.14726C230.873 0.056078 231 0.00244141 231.132 0.00244141H241.507C241.779 0.00244141 242.003 0.222351 242.003 0.495898H242Z" fill="white"/>
<path d="M43.0151 2.76514H41.2195C40.9472 2.76514 40.7261 2.98505 40.7261 3.25591V24.5067C40.7261 24.7776 40.9472 24.9975 41.2195 24.9975H43.0151C43.2875 24.9975 43.5085 24.7776 43.5085 24.5067V13.884H60.6402C60.9125 13.884 61.1336 13.6641 61.1336 13.3932V11.6071C61.1336 11.3363 60.9125 11.1163 60.6402 11.1163H43.5085V3.25591C43.5085 2.98505 43.2875 2.76514 43.0151 2.76514Z" fill="white"/>
<path d="M60.6375 0H43.9993C43.7268 0 43.5059 0.219727 43.5059 0.490775V2.27419C43.5059 2.54524 43.7268 2.76496 43.9993 2.76496H60.6375C60.91 2.76496 61.1309 2.54524 61.1309 2.27419V0.490775C61.1309 0.219727 60.91 0 60.6375 0Z" fill="white"/>
<path d="M67.6557 0H65.8627C65.5902 0 65.3693 0.219727 65.3693 0.490775V24.5039C65.3693 24.7749 65.5902 24.9946 65.8627 24.9946H67.6557C67.9282 24.9946 68.1491 24.7749 68.1491 24.5039V0.490775C68.1491 0.219727 67.9282 0 67.6557 0Z" fill="white"/>
<path d="M99.0475 0.493456V2.27419C99.0475 2.54505 98.8264 2.76496 98.5541 2.76496H86.5911V24.5039C86.5911 24.7747 86.3673 24.9973 86.095 24.9973H84.2912C84.027 24.9973 83.8113 24.7828 83.8113 24.52V2.76496H71.8348C71.5733 2.76496 71.3414 2.54774 71.3414 2.27419V0.493456C71.3414 0.217228 71.5733 0 71.8348 0H82.2098C82.3419 0 82.4659 0.0509547 82.5603 0.144819L84.844 2.41633C85.0381 2.60942 85.3508 2.60942 85.545 2.41633L87.8287 0.144819C87.9203 0.0536366 88.047 0 88.1792 0H98.5541C98.8264 0 99.0502 0.21991 99.0502 0.493456H99.0475Z" fill="white"/>
<path d="M103.601 0.83649L115.325 12.4998L103.604 24.1603C103.294 24.4688 103.512 24.9971 103.952 24.9971H106.486C106.616 24.9971 106.743 24.9461 106.834 24.8549L118.908 12.8484C119.099 12.658 119.099 12.3469 118.908 12.1565L106.831 0.144578C106.74 0.0533961 106.613 0.00244141 106.484 0.00244141H103.949C103.51 0.00244141 103.291 0.530762 103.601 0.839172V0.83649Z" fill="white"/>
<path d="M132.963 0.144819L120.889 12.154C120.698 12.3445 120.698 12.6555 120.889 12.846L132.96 24.8525C133.052 24.9437 133.179 24.9946 133.308 24.9946H135.845C136.285 24.9946 136.503 24.4663 136.193 24.1579L124.47 12.4973L136.196 0.83673C136.506 0.52832 136.287 0 135.848 0H133.311C133.181 0 133.055 0.0509547 132.963 0.142137V0.144819Z" fill="white"/>
<path d="M10.6635 4.88361C10.5745 5.41193 10.2941 5.92684 9.86539 6.35593L6.34416 9.87181C5.85614 10.3572 5.19018 10.6227 4.49456 10.6227C3.79894 10.6227 3.13298 10.3572 2.64497 9.87181L0.0161772 7.26775L0 0.016091L7.29322 0L9.92471 2.61746C10.5314 3.22088 10.7983 4.0442 10.6635 4.88361Z" fill="#FFF000"/>
<path d="M25.1286 24.9653L17.8381 24.9787L15.2039 22.3612C14.5972 21.7578 14.3303 20.9345 14.4651 20.0951C14.5541 19.5641 14.821 19.0492 15.2632 18.6227L18.7089 15.1793C19.2104 14.6939 19.8332 14.3989 20.4695 14.356H20.634C21.3431 14.356 21.9956 14.6215 22.4836 15.1203L25.1151 17.7243L25.1286 24.9626V24.9653Z" fill="#FFF000"/>
<path d="M25.1151 0.0161133V7.25437L22.5564 9.79942C22.0684 10.2982 21.4321 10.5932 20.7958 10.6227C20.0274 10.6817 19.3156 10.4028 18.7844 9.87183L18.3395 9.43201L7.03977 20.6716L10.3372 19.2153C10.9304 20.2291 10.7659 21.5244 9.9247 22.3638L7.3067 24.9812L0.0161743 24.9947V17.7269L2.57487 15.1818C3.06288 14.6803 3.683 14.388 4.31931 14.3585C4.37862 14.3585 4.43794 14.3451 4.49726 14.3451C5.19288 14.3451 5.84266 14.624 6.34685 15.1094L6.78903 15.5519L18.0888 4.3124L14.7913 5.76863C14.5244 5.32881 14.4058 4.82731 14.4354 4.3124C14.4786 3.67949 14.7752 3.04658 15.2632 2.56117L17.8246 0.0161133H25.1151Z" fill="#FFF000"/>
</g>
<defs>
<clipPath id="clip0_0_961">
<rect width="242" height="25" fill="white"/>
</clipPath>
</defs>
</svg>
